<?xml version="1.0" encoding="iso-8859-1"?>
<!-- Generator: Adobe Illustrator 19.0.0, SVG Export Plug-In . SVG Version: 6.00 Build 0)  -->
<svg version="1.1" id="Capa_1" xmlns="http://www.w3.org/2000/svg" xmlns:xlink="http://www.w3.org/1999/xlink" x="0px" y="0px"
	 viewBox="0 0 512.002 512.002" style="enable-background:new 0 0 512.002 512.002;" xml:space="preserve">
<g>
	<g>
		<path d="M478.557,169.845c-20.405-22.306-47.805-36.566-77.566-40.464c-11.462-24.323-36.206-41.204-64.827-41.204
			c-5.078,0-10.108,0.552-15.014,1.605c-17.77-16.576-40.736-25.653-65.147-25.653c-44.225,0-81.532,30.164-92.444,70.996
			c-25.86,16.331-62.805,31.138-89.603,40.79c-3.896,1.404-5.918,5.701-4.515,9.599c1.102,3.058,3.984,4.96,7.057,4.96
			c0.844,0,1.702-0.144,2.542-0.445c23.913-8.614,55.769-21.272,81.442-35.645c-0.101,1.795-0.157,3.603-0.157,5.423
			c0,6.301,0.665,12.685,1.98,19.053C96.51,205.379,6.881,224.417,5.956,224.612c-4.053,0.854-6.646,4.832-5.792,8.886
			c0.854,4.053,4.84,6.64,8.885,5.792c0.931-0.197,90.425-19.204,157.348-45.914c2.319,6.2,5.284,12.168,8.88,17.807
			c1.431,2.243,3.854,3.469,6.331,3.469c1.38,0,2.776-0.381,4.025-1.177c3.493-2.228,4.441-6.816,2.292-10.356
			c-6.672-10.994-9.521-21.503-9.594-21.769c-1.995-7.203-3.006-14.451-3.006-21.544c0-44.486,36.192-80.678,80.678-80.678
			c17.82,0,34.726,5.745,48.669,16.361c-5.286,2.586-10.272,5.815-14.815,9.667c-3.159,2.679-3.549,7.412-0.869,10.57
			c2.68,3.16,7.413,3.548,10.57,0.869c10.204-8.653,23.204-13.419,36.605-13.419c23.908,0,44.388,14.9,52.681,35.895l-0.021,0.017
			c0.046,0.118,0.11,0.225,0.162,0.34c2.45,6.328,3.808,13.195,3.808,20.377c0,4.143,3.357,7.5,7.5,7.5s7.5-3.357,7.5-7.5
			c0-4.911-0.499-9.707-1.444-14.343c23.417,4.653,44.815,16.658,61.141,34.507c19.032,20.806,29.514,47.808,29.514,76.029
			c0,28.221-10.481,55.224-29.514,76.029c-16.326,17.848-37.723,29.853-61.141,34.507c0.946-4.635,1.444-9.432,1.444-14.343
			c0-4.143-3.357-7.5-7.5-7.5s-7.5,3.357-7.5,7.5c0,31.226-25.403,56.629-56.629,56.629c-11.35,0-22.296-3.343-31.657-9.667
			c-3.433-2.318-8.095-1.416-10.413,2.017c-2.318,3.432-1.416,8.094,2.017,10.413c2.745,1.854,5.601,3.497,8.542,4.941
			c-13.939,10.606-30.837,16.345-48.649,16.345c-44.485,0-80.678-36.191-80.678-80.678c0-7.093,1.011-14.341,3.006-21.544
			c0.083-0.3,3.422-11.399,7.954-19.082c2.105-3.568,0.883-8.17-2.693-10.26c-3.574-2.087-8.169-0.883-10.26,2.693
			c-2.732,4.678-5.039,9.575-6.926,14.626C99.481,291.916,9.979,272.906,9.048,272.71c-4.052-0.856-8.03,1.739-8.885,5.792
			c-0.854,4.054,1.739,8.031,5.792,8.886c0.926,0.195,90.555,19.233,156.35,45.753c-1.315,6.368-1.98,12.752-1.98,19.053
			c0,1.82,0.056,3.627,0.157,5.423c-25.673-14.373-57.53-27.031-81.442-35.645c-3.899-1.402-8.194,0.618-9.599,4.515
			c-1.403,3.897,0.618,8.194,4.515,9.599c26.798,9.652,63.743,24.458,89.603,40.79c10.912,40.833,48.219,70.996,92.444,70.996
			c24.404,0,47.364-9.073,65.131-25.639c4.903,1.046,9.933,1.59,15.03,1.59c28.622,0,53.365-16.881,64.827-41.204
			c29.762-3.898,57.162-18.158,77.566-40.464c21.567-23.579,33.445-54.176,33.445-86.154
			C512.002,224.023,500.124,193.425,478.557,169.845z"/>
	</g>
</g>
<g>
	<g>
		<path d="M396.164,183.701c-3.645-1.973-8.195-0.616-10.166,3.025c-1.769,3.268-3.873,6.378-6.257,9.245
			c-2.647,3.187-2.211,7.915,0.975,10.563c1.402,1.164,3.101,1.731,4.79,1.731c2.152,0,4.289-0.922,5.772-2.706
			c3.013-3.626,5.674-7.56,7.911-11.692C401.161,190.224,399.806,185.673,396.164,183.701z"/>
	</g>
</g>
<g>
	<g>
		<path d="M49.576,311.919c-8.533-2.749-13.692-4.267-13.908-4.33c-3.974-1.166-8.142,1.11-9.309,5.083
			c-1.167,3.975,1.109,8.143,5.083,9.31c0.052,0.015,5.207,1.531,13.532,4.215c0.766,0.246,1.54,0.363,2.303,0.363
			c3.168,0,6.112-2.023,7.137-5.201C55.684,317.415,53.518,313.189,49.576,311.919z"/>
	</g>
</g>
<g>
	<g>
		<path d="M54.413,190.641c-1.271-3.943-5.501-6.107-9.439-4.838c-8.325,2.684-13.48,4.2-13.532,4.215
			c-3.974,1.167-6.25,5.335-5.083,9.31c0.96,3.268,3.95,5.388,7.193,5.388c0.699,0,1.41-0.099,2.115-0.306
			c0.216-0.063,5.375-1.581,13.908-4.33C53.517,198.809,55.683,194.584,54.413,190.641z"/>
	</g>
</g>
<g>
</g>
<g>
</g>
<g>
</g>
<g>
</g>
<g>
</g>
<g>
</g>
<g>
</g>
<g>
</g>
<g>
</g>
<g>
</g>
<g>
</g>
<g>
</g>
<g>
</g>
<g>
</g>
<g>
</g>
</svg>
